<svg id="Capa_1" data-name="Capa 1" xmlns="http://www.w3.org/2000/svg" viewBox="0 0 464.96 465.04"><defs><style>.cls-1{fill:#878787;}</style></defs><title>lupa</title><path class="cls-1" d="M482.16,425.54,391.61,335a21.78,21.78,0,0,0-15.44-6.36h-14.8a188.82,188.82,0,1,0-32.7,32.7v14.8A21.78,21.78,0,0,0,335,391.57l90.55,90.55a21.7,21.7,0,0,0,30.79,0l25.7-25.7A21.91,21.91,0,0,0,482.16,425.54ZM212.42,328.63A116.25,116.25,0,1,1,328.67,212.38,116.18,116.18,0,0,1,212.42,328.63Z" transform="translate(-23.52 -23.48)"/></svg>